<?xml version="1.0" encoding="UTF-8"?>
<svg version="1.1" xmlns="http://www.w3.org/2000/svg" width="162" height="156">
<path d="M0 0 C1.1330692 0.92773133 2.25906382 1.86422911 3.375 2.8125 C4.365 3.555 5.355 4.2975 6.375 5.0625 C19.61944004 16.3274721 27.93021986 33.8358737 30.375 50.8125 C32.19705434 73.99531965 27.72316198 95.75060503 12.375 113.8125 C11.6325 114.8025 10.89 115.7925 10.125 116.8125 C-1.07056863 129.97534108 -18.69013849 138.53067854 -35.625 140.8125 C-60.99606917 142.47376659 -84.61903032 139.81264665 -104.625 122.8125 C-105.615 122.07 -106.605 121.3275 -107.625 120.5625 C-120.86944004 109.2975279 -129.18021986 91.7891263 -131.625 74.8125 C-133.44705434 51.62968035 -128.97316198 29.87439497 -113.625 11.8125 C-112.8825 10.8225 -112.14 9.8325 -111.375 8.8125 C-84.68206224 -22.57089008 -31.73562439 -23.39368884 0 0 Z " fill="#8A1105" transform="translate(131.625,15.1875)"/>
<path d="M0 0 C4.60673221 3.15125199 8.6342052 6.90121203 12.62109375 10.79296875 C11.04478698 14.66617968 8.54361706 17.04032038 5.55859375 19.91796875 C2.15655892 23.0340264 2.15655892 23.0340264 -0.37890625 26.79296875 C-2.87252196 25.58915427 -5.06033708 24.33868153 -7.37890625 22.79296875 C-6.90688139 18.54474501 -4.41235107 16.59307166 -1.37890625 13.79296875 C-2.82875799 10.00724476 -4.50603633 8.86961978 -8.12890625 7.16796875 C-8.969375 6.76320313 -9.80984375 6.3584375 -10.67578125 5.94140625 C-21.56253165 1.31611056 -36.19270721 0.55684087 -47.56640625 4.29296875 C-59.92355379 9.94591746 -69.24269955 19.20804523 -74.37890625 31.79296875 C-74.7346875 32.64246094 -75.09046875 33.49195313 -75.45703125 34.3671875 C-76.72392593 39.07509699 -76.80323738 43.56030218 -76.81640625 48.41796875 C-76.82027344 49.39475586 -76.82414062 50.37154297 -76.828125 51.37792969 C-76.70173807 59.30081036 -75.12089835 64.79009782 -71.37890625 71.79296875 C-71.37890625 72.45296875 -71.37890625 73.11296875 -71.37890625 73.79296875 C-70.49203125 73.68984375 -69.60515625 73.58671875 -68.69140625 73.48046875 C-64.35408893 73.88964963 -63.14363908 75.55428172 -60.37890625 78.79296875 C-59.88390625 79.28796875 -59.88390625 79.28796875 -59.37890625 79.79296875 C-59.42015625 80.84484375 -59.46140625 81.89671875 -59.50390625 82.98046875 C-58.15188211 87.56232834 -57.24382141 87.87910805 -53.19140625 90.10546875 C-41.56980853 95.9083185 -27.27081854 97.53536952 -14.6953125 93.5078125 C-1.62785585 88.47422097 6.89581823 80.21005342 12.65234375 67.51953125 C14.04099087 64.0607713 14.62109375 61.55645911 14.62109375 57.79296875 C13.64415552 55.92640099 13.64415552 55.92640099 11.62109375 54.79296875 C7.098239 54.19921893 2.55454982 54.27801675 -2.00244141 54.29199219 C-4.23992338 54.29296268 -6.47395254 54.25138654 -8.7109375 54.20703125 C-10.13931579 54.20182236 -11.56770596 54.19913609 -12.99609375 54.19921875 C-14.93911377 54.18858398 -14.93911377 54.18858398 -16.92138672 54.17773438 C-21.2133588 54.94145204 -22.57764461 56.55627784 -25.37890625 59.79296875 C-28.16344449 60.68950568 -30.55510703 60.52886794 -33.37890625 59.79296875 C-36.31640625 57.35546875 -36.31640625 57.35546875 -38.37890625 54.79296875 C-38.70890625 54.46296875 -39.03890625 54.13296875 -39.37890625 53.79296875 C-39.67213491 50.86068212 -39.87894872 48.64804992 -39.37890625 45.79296875 C-36.94140625 42.85546875 -36.94140625 42.85546875 -34.37890625 40.79296875 C-34.04890625 40.46296875 -33.71890625 40.13296875 -33.37890625 39.79296875 C-27.74813702 39.42373798 -27.74813702 39.42373798 -25.37890625 39.79296875 C-24.84144775 40.28418213 -24.30398926 40.77539551 -23.75024414 41.28149414 C-20.39905836 43.41751712 -17.18670695 43.27162286 -13.33203125 43.3046875 C-12.56082947 43.3226387 -11.78962769 43.3405899 -10.99505615 43.35908508 C-8.53972793 43.41312644 -6.08459339 43.44706295 -3.62890625 43.48046875 C-1.96091059 43.51364739 -0.29294046 43.54813757 1.375 43.58398438 C5.45689135 43.66884897 9.53872589 43.73568901 13.62109375 43.79296875 C13.62109375 43.13296875 13.62109375 42.47296875 13.62109375 41.79296875 C17.2863253 39.34948105 20.36079732 38.94589227 24.62109375 39.79296875 C27.55859375 42.23046875 27.55859375 42.23046875 29.62109375 44.79296875 C29.95109375 45.12296875 30.28109375 45.45296875 30.62109375 45.79296875 C31.08980214 52.94077168 31.08980214 52.94077168 29.24609375 56.29296875 C27.62109375 57.79296875 27.62109375 57.79296875 25.62109375 57.79296875 C25.55792969 58.43621094 25.49476563 59.07945313 25.4296875 59.7421875 C23.54971321 73.61441885 15.8309445 84.89291327 5.24609375 93.7890625 C-8.72480928 104.20007197 -24.57891747 107.61968207 -41.625 105.36328125 C-49.03458021 103.7691883 -58.8743869 100.2974881 -64.37890625 94.79296875 C-65.79411243 94.68770548 -67.21131313 94.60868499 -68.62890625 94.54296875 C-72.44534827 94.17834053 -73.27231676 93.88179333 -76.37890625 91.29296875 C-77.36890625 90.05546875 -77.36890625 90.05546875 -78.37890625 88.79296875 C-78.70890625 88.46296875 -79.03890625 88.13296875 -79.37890625 87.79296875 C-79.29640625 86.51421875 -79.21390625 85.23546875 -79.12890625 83.91796875 C-79.05539742 78.74784779 -80.83246657 75.23983098 -83.06640625 70.6640625 C-89.0962298 57.47382349 -89.14518156 42.38355298 -84.37890625 28.79296875 C-79.90704973 17.68703937 -72.67340945 9.21226517 -63.37890625 1.79296875 C-62.78851563 1.31988281 -62.198125 0.84679688 -61.58984375 0.359375 C-43.34046629 -12.54381919 -18.62708293 -10.76662 0 0 Z " fill="#F8E4B9" transform="translate(109.37890625,30.20703125)"/>
<path d="M0 0 C1.65 0.33 3.3 0.66 5 1 C5 2.98 5 4.96 5 7 C3.1875 7.6875 3.1875 7.6875 1 8 C-0.75 6.5625 -0.75 6.5625 -2 5 C-1.34 3.35 -0.68 1.7 0 0 Z " fill="#992C1C" transform="translate(38,110)"/>
<path d="M0 0 C1.65 0.33 3.3 0.66 5 1 C4.67 2.65 4.34 4.3 4 6 C2.35 5.67 0.7 5.34 -1 5 C-0.67 3.35 -0.34 1.7 0 0 Z " fill="#8A1005" transform="translate(128,77)"/>
</svg>
