<?xml version="1.0" encoding="UTF-8"?>
<svg version="1.1" xmlns="http://www.w3.org/2000/svg" width="162" height="156">
<path d="M0 0 C53.46 0 106.92 0 162 0 C162 51.48 162 102.96 162 156 C108.54 156 55.08 156 0 156 C0 104.52 0 53.04 0 0 Z " fill="#FBE9BD" transform="translate(0,0)"/>
<path d="M0 0 C3.50633651 2.83846289 6.80355841 5.81798929 10 9 C8.42369323 12.87321093 5.92252331 15.24735163 2.9375 18.125 C-0.46453483 21.24105765 -0.46453483 21.24105765 -3 25 C-5.49361571 23.79618552 -7.68143083 22.54571278 -10 21 C-9.52797514 16.75177626 -7.03344482 14.80010291 -4 12 C-5.44324037 8.27295069 -7.06011303 7.08570427 -10.625 5.375 C-11.44226563 4.97023438 -12.25953125 4.56546875 -13.1015625 4.1484375 C-24.17416576 -0.2388204 -38.64325348 -1.2294071 -50.0625 2.5 C-61.89820806 7.79541099 -70.411139 16.2819561 -76.17578125 27.78515625 C-78.53068585 34.11326483 -79.38733881 40.04784784 -79.375 46.75 C-79.37556396 47.53133301 -79.37612793 48.31266602 -79.37670898 49.11767578 C-79.24796986 55.95984369 -77.58045534 61.67840259 -75 68 C-74.64045873 69.3265063 -74.29648991 70.65799306 -74 72 C-72.948125 72.061875 -71.89625 72.12375 -70.8125 72.1875 C-66.23921892 73.16213367 -64.76085832 74.2647211 -62 78 C-61.93039063 79.134375 -61.86078125 80.26875 -61.7890625 81.4375 C-61.35790479 85.24267704 -61.35790479 85.24267704 -58.015625 87.1796875 C-56.77298765 87.77192317 -55.51683562 88.33646664 -54.25 88.875 C-53.62867188 89.16890625 -53.00734375 89.4628125 -52.3671875 89.765625 C-42.05367231 94.50897165 -28.38502852 94.76095364 -17.5625 91.4375 C-4.9165145 86.44566362 4.29771251 78.83662113 10.0546875 66.46484375 C11.45660718 62.80942507 12 59.92993705 12 56 C11.01731549 54.15777693 11.01731549 54.15777693 9 53 C5.67418207 52.51814865 5.67418207 52.51814865 1.84765625 52.56640625 C1.15111435 52.5611644 0.45457245 52.55592255 -0.26307678 52.55052185 C-1.73485991 52.54410475 -3.20669434 52.54543471 -4.6784668 52.55395508 C-6.92655156 52.56245859 -9.17208866 52.53371679 -11.41992188 52.50195312 C-12.85156174 52.50034075 -14.28320609 52.50091934 -15.71484375 52.50390625 C-17.01542725 52.50205322 -18.31601074 52.5002002 -19.65600586 52.49829102 C-23.53359426 53.08005667 -24.56272763 54.03457474 -27 57 C-30.13871188 58.56935594 -32.53855822 58.35201103 -36 58 C-39.87949018 54.79520377 -41.80826445 52.69366403 -42.375 47.6875 C-41.90786625 43.09401813 -40.47959782 41.88552015 -37 39 C-36.67 38.67 -36.34 38.34 -36 38 C-30.36923077 37.63076923 -30.36923077 37.63076923 -28 38 C-27.4625415 38.49121338 -26.92508301 38.98242676 -26.37133789 39.48852539 C-23.02015211 41.62454837 -19.8078007 41.47865411 -15.953125 41.51171875 C-15.18192322 41.52966995 -14.41072144 41.54762115 -13.6161499 41.56611633 C-11.16082168 41.62015769 -8.70568714 41.6540942 -6.25 41.6875 C-4.58200434 41.72067864 -2.91403421 41.75516882 -1.24609375 41.79101562 C2.8357976 41.87588022 6.91763214 41.94272026 11 42 C11 41.34 11 40.68 11 40 C14.66523155 37.5565123 17.73970357 37.15292352 22 38 C24.9375 40.4375 24.9375 40.4375 27 43 C27.33 43.33 27.66 43.66 28 44 C28.38081364 48.95057736 28.11861229 52.04176132 25 56 C24.34 56 23.68 56 23 56 C22.9071875 57.15757813 22.814375 58.31515625 22.71875 59.5078125 C22.13599804 64.10710143 20.61097679 67.7786998 18.5 71.875 C18.14615234 72.56899902 17.79230469 73.26299805 17.42773438 73.97802734 C10.36000765 87.28726231 -0.20322635 95.5046749 -14 101 C-15.15242188 101.48339844 -15.15242188 101.48339844 -16.328125 101.9765625 C-27.54437635 106.05866758 -41.94502935 105.25417646 -53 101 C-64.53556485 95.46443515 -64.53556485 95.46443515 -67 93 C-68.41520618 92.89473673 -69.83240688 92.81571624 -71.25 92.75 C-75.02414329 92.38340328 -75.90314229 92.07869689 -79 89.5625 C-82.04781705 85.65748441 -82.04781705 85.65748441 -81.75 81.5625 C-81.67023843 76.66159481 -83.59838476 73.11003509 -85.6875 68.765625 C-91.4804515 56.55904863 -91.76556158 42.61664453 -87.97265625 29.703125 C-82.66215957 14.94463624 -72.15682843 2.11653853 -58 -5 C-38.55231439 -13.11920302 -17.75354202 -11.87338798 0 0 Z " fill="#8D160A" transform="translate(112,32)"/>
<path d="M0 0 C1.65 0.33 3.3 0.66 5 1 C4.67 2.65 4.34 4.3 4 6 C2.35 5.67 0.7 5.34 -1 5 C-0.67 3.35 -0.34 1.7 0 0 Z " fill="#FCEABE" transform="translate(38,111)"/>
<path d="M0 0 C1.65 0.33 3.3 0.66 5 1 C4.67 2.65 4.34 4.3 4 6 C2.35 5.67 0.7 5.34 -1 5 C-0.67 3.35 -0.34 1.7 0 0 Z " fill="#FCEABE" transform="translate(128,77)"/>
</svg>
